<svg id="Layer_1" data-name="Layer 1" xmlns="http://www.w3.org/2000/svg" viewBox="0 0 223.76 49.69"><defs><style>.cls-1{fill:#231f20;}.cls-2{fill:#9a3434;}.cls-3{fill:none;stroke:#231f20;stroke-miterlimit:10;stroke-width:0.5px;}</style></defs><title>teji_logo</title><path class="cls-1" d="M50.28,17.42V10.58H70.15v6.84ZM13.45,34V10.58H21V34ZM25.74,44.79V10.58h7.54V44.79Zm-24.58,0V10.58H8.7V44.79Zm49.17,0V21.41h7.53V44.79ZM38,17.42V10.58h7.58v6.84Z" transform="translate(-1.16 -2.84)"/><rect class="cls-2" x="36.89" y="18.54" width="7.53" height="23.38"/><line class="cls-3" x1="81.41" x2="81.41" y2="49.69"/><path class="cls-1" d="M139.05,19.09H133.3v3.63h6.35v2.56h-9V10.81h9v2.57H133.3v3.14h5.75Z" transform="translate(-1.16 -2.84)"/><path class="cls-1" d="M149.68,25.24h-1.79l-.14-.35a5.18,5.18,0,0,1-2.43.66c-3.41,0-4.38-1.83-4.38-5.13s1-5.13,4.38-5.13a5.57,5.57,0,0,1,1.84.36V10.77h2.52Zm-2.52-7.3a5.09,5.09,0,0,0-1.8-.37c-1.52,0-1.83,1.16-1.83,2.72s.31,2.72,1.83,2.72a5.11,5.11,0,0,0,1.8-.36Z" transform="translate(-1.16 -2.84)"/><path class="cls-1" d="M154.05,22c0,.7.39,1.18,1.3,1.18a5.88,5.88,0,0,0,2-.43V15.59h2.57v9.65h-1.8l-.15-.31a7.64,7.64,0,0,1-2.62.62c-2.9,0-3.86-1.29-3.86-3.59V15.59h2.56Z" transform="translate(-1.16 -2.84)"/><path class="cls-1" d="M165.6,23.05a9,9,0,0,0,3.16-.61v2.43a7.68,7.68,0,0,1-3.16.6c-3.3,0-4.36-2.09-4.36-5.14s1.06-5.13,4.36-5.13a7.68,7.68,0,0,1,3.16.6v2.43a9,9,0,0,0-3.16-.62c-1.49,0-1.78,1.3-1.78,2.72S164.11,23.05,165.6,23.05Z" transform="translate(-1.16 -2.84)"/><path class="cls-1" d="M175.66,18.78c0-.67-.37-1-1.3-1a11.38,11.38,0,0,0-3.39.62V16a9.15,9.15,0,0,1,3.39-.58c3,0,3.84,1.41,3.84,3.53v6.42h-1.79l-.16-.29a5.66,5.66,0,0,1-2.31.6c-2.76,0-3.65-1.66-3.65-3.45s1-3.11,3.65-3.28ZM174,21.14c-.89.07-1.14.56-1.14,1s.13,1,1.12,1a4.57,4.57,0,0,0,1.68-.46V21Z" transform="translate(-1.16 -2.84)"/><path class="cls-1" d="M185.4,25.33a5.63,5.63,0,0,1-1.49.18c-1.66,0-3.32-.87-3.32-2.88V17.85h-1.67V16.11l1.67-.48V13.37l2.53-.69v2.87h2.66v2.3h-2.66V22.5c0,.46.37.6.93.6A10.73,10.73,0,0,0,185.4,23Z" transform="translate(-1.16 -2.84)"/><path class="cls-1" d="M188.69,10.84a1.59,1.59,0,0,1,1.59,1.58A1.57,1.57,0,0,1,188.69,14a1.56,1.56,0,0,1-1.56-1.56A1.57,1.57,0,0,1,188.69,10.84Zm1.24,14.58c-1.66,0-2.53-.65-2.53-2.52V15.47h2.53v7c0,.37.17.54.69.54v2.41Z" transform="translate(-1.16 -2.84)"/><path class="cls-1" d="M196.16,25.51c-3.53,0-4.34-2.12-4.34-5.13s.81-5.14,4.34-5.14,4.34,2.13,4.34,5.14S199.73,25.51,196.16,25.51Zm0-7.85c-1.62,0-1.79,1.21-1.79,2.72s.17,2.72,1.79,2.72,1.8-1.22,1.8-2.72S197.76,17.66,196.16,17.66Z" transform="translate(-1.16 -2.84)"/><path class="cls-1" d="M207.81,18.87c0-.69-.38-1.17-1.29-1.17a6.13,6.13,0,0,0-2,.42v7.12H202V15.59h1.79l.16.31a7.59,7.59,0,0,1,2.62-.61c2.89,0,3.86,1.29,3.86,3.58v6.37h-2.57Z" transform="translate(-1.16 -2.84)"/><path class="cls-1" d="M217.43,18.74c0-.67-.37-1-1.3-1a11.38,11.38,0,0,0-3.39.62V15.91a9,9,0,0,1,3.39-.58c3.05,0,3.84,1.41,3.84,3.53v6.42h-1.79L218,25a5.66,5.66,0,0,1-2.31.6c-2.76,0-3.65-1.66-3.65-3.45s.95-3.11,3.65-3.28Zm-1.66,2.36c-.89.07-1.14.56-1.14,1s.13,1,1.12,1a4.57,4.57,0,0,0,1.68-.46V21Z" transform="translate(-1.16 -2.84)"/><path class="cls-1" d="M224.23,25.55c-1.66,0-2.53-.66-2.53-2.53V10.77h2.53V22.6c0,.36.17.54.69.54v2.41Z" transform="translate(-1.16 -2.84)"/><path class="cls-1" d="M94,42.12a6.92,6.92,0,0,0,1.94.33c.7,0,1.18-.19,1.18-.77V30.22h2.66V41.66c0,2.1-1.17,3.33-3.84,3.33A7.71,7.71,0,0,1,94,44.67Z" transform="translate(-1.16 -2.84)"/><path class="cls-1" d="M104.28,41.41c0,.69.38,1.17,1.29,1.17a6.27,6.27,0,0,0,2-.42V35h2.56v9.65h-1.79l-.16-.31a7.53,7.53,0,0,1-2.62.61c-2.89,0-3.86-1.29-3.86-3.58V35h2.57Z" transform="translate(-1.16 -2.84)"/><path class="cls-1" d="M115.53,38.55c2.87.27,3.53,1.29,3.53,3.09,0,1.62-1,3.35-4,3.35a10.92,10.92,0,0,1-3.19-.59V41.89a10.15,10.15,0,0,0,3.21.69c1.17,0,1.52-.48,1.52-.9s-.23-.68-1.29-.77c-2.84-.27-3.53-1.41-3.53-2.92s.94-3.26,3.8-3.26a7.67,7.67,0,0,1,3.1.64V37.8a9.64,9.64,0,0,0-3.1-.66c-1.08,0-1.32.39-1.32.83S114.43,38.46,115.53,38.55Z" transform="translate(-1.16 -2.84)"/><path class="cls-1" d="M126.45,44.82A5.89,5.89,0,0,1,125,45c-1.66,0-3.32-.86-3.32-2.87V37.34H120V35.6l1.67-.48V32.86l2.53-.69V35h2.66v2.3h-2.66V42c0,.46.37.59.93.59a10.52,10.52,0,0,0,1.35-.11Z" transform="translate(-1.16 -2.84)"/><path class="cls-1" d="M129.53,30.41a1.58,1.58,0,1,1,0,3.15,1.58,1.58,0,0,1,0-3.15ZM130.77,45c-1.66,0-2.53-.65-2.53-2.52V35h2.53v7c0,.37.17.54.69.54V45Z" transform="translate(-1.16 -2.84)"/><path class="cls-1" d="M137.23,42.58A9.08,9.08,0,0,0,140.4,42V44.4a7.73,7.73,0,0,1-3.17.59c-3.3,0-4.36-2.08-4.36-5.13s1.06-5.13,4.36-5.13a7.75,7.75,0,0,1,3.17.6v2.43a9.1,9.1,0,0,0-3.17-.62c-1.48,0-1.77,1.3-1.77,2.72S135.75,42.58,137.23,42.58Z" transform="translate(-1.16 -2.84)"/><path class="cls-1" d="M144.28,41.08a1.49,1.49,0,0,0,1.67,1.5,8.48,8.48,0,0,0,3.46-.73v2.51A8.52,8.52,0,0,1,146,45c-3.3,0-4.36-2.08-4.36-5.13s1.06-5.13,4.36-5.13c3.48,0,3.94,2.43,3.94,5.13v1.22Zm0-2.32h3c-.06-.86-.27-1.62-1.32-1.62S144.41,37.84,144.26,38.76Z" transform="translate(-1.16 -2.84)"/><path class="cls-1" d="M155.39,45V30.49h2.68V45Z" transform="translate(-1.16 -2.84)"/><path class="cls-1" d="M166.13,38.59c0-.69-.39-1.17-1.3-1.17a6.19,6.19,0,0,0-2,.42V45h-2.57V35.32h1.8l.15.3a7.64,7.64,0,0,1,2.62-.61c2.9,0,3.86,1.29,3.86,3.58V45h-2.56Z" transform="translate(-1.16 -2.84)"/><path class="cls-1" d="M174,38.83c2.87.27,3.53,1.29,3.53,3.08,0,1.62-1,3.36-4,3.36a10.86,10.86,0,0,1-3.18-.6V42.16a10.09,10.09,0,0,0,3.2.7c1.18,0,1.52-.48,1.52-.91s-.23-.67-1.29-.77c-2.84-.27-3.53-1.41-3.53-2.91S171.13,35,174,35a7.65,7.65,0,0,1,3.11.63v2.43a10,10,0,0,0-3.11-.65c-1.08,0-1.31.38-1.31.83C172.67,38.54,172.88,38.73,174,38.83Z" transform="translate(-1.16 -2.84)"/><path class="cls-1" d="M184.9,45.1a5.89,5.89,0,0,1-1.49.17c-1.65,0-3.31-.87-3.31-2.88V37.61h-1.68V35.87l1.68-.48V33.14l2.52-.7v2.88h2.67v2.29h-2.67v4.65c0,.46.37.6.93.6a10.57,10.57,0,0,0,1.35-.12Z" transform="translate(-1.16 -2.84)"/><path class="cls-1" d="M188,30.69a1.58,1.58,0,0,1,1.58,1.58A1.57,1.57,0,0,1,188,33.83a1.55,1.55,0,0,1-1.56-1.56A1.57,1.57,0,0,1,188,30.69Zm1.23,14.58c-1.66,0-2.52-.66-2.52-2.53V35.32h2.52v7c0,.36.18.54.7.54v2.41Z" transform="translate(-1.16 -2.84)"/><path class="cls-1" d="M197.42,45.1a5.86,5.86,0,0,1-1.48.17c-1.66,0-3.32-.87-3.32-2.88V37.61h-1.68V35.87l1.68-.48V33.14l2.53-.7v2.88h2.66v2.29h-2.66v4.65c0,.46.36.6.92.6a10.57,10.57,0,0,0,1.35-.12Z" transform="translate(-1.16 -2.84)"/><path class="cls-1" d="M201.55,41.68c0,.7.39,1.18,1.29,1.18a6,6,0,0,0,2-.43V35.32h2.57V45h-1.8l-.15-.31a7.64,7.64,0,0,1-2.63.62C200,45.27,199,44,199,41.68V35.32h2.56Z" transform="translate(-1.16 -2.84)"/><path class="cls-1" d="M215.21,45.1a5.89,5.89,0,0,1-1.49.17c-1.66,0-3.32-.87-3.32-2.88V37.61h-1.67V35.87l1.67-.48V33.14l2.53-.7v2.88h2.66v2.29h-2.66v4.65c0,.46.37.6.93.6a10.73,10.73,0,0,0,1.35-.12Z" transform="translate(-1.16 -2.84)"/><path class="cls-1" d="M219.18,41.35a1.5,1.5,0,0,0,1.67,1.51,8.34,8.34,0,0,0,3.46-.74v2.51a8.54,8.54,0,0,1-3.46.64c-3.29,0-4.36-2.08-4.36-5.13S217.56,35,220.85,35c3.48,0,3.94,2.43,3.94,5.13v1.21Zm0-2.31h3c-.06-.87-.27-1.62-1.32-1.62S219.31,38.11,219.16,39Z" transform="translate(-1.16 -2.84)"/><path class="cls-1" d="M100.22,13.35v11.9H97.54V13.35H93.92V10.79h9.92v2.56Z" transform="translate(-1.16 -2.84)"/><path class="cls-1" d="M111,18.89c0-.7-.38-1.18-1.29-1.18a6.19,6.19,0,0,0-2,.42v7.12h-2.55V10.79h2.55v4.92a6.15,6.15,0,0,1,2-.41c2.89,0,3.86,1.29,3.86,3.59v6.36H111Z" transform="translate(-1.16 -2.84)"/><path class="cls-1" d="M117.36,21.6A1.5,1.5,0,0,0,119,23.1a8.47,8.47,0,0,0,3.45-.73v2.51a8.5,8.5,0,0,1-3.45.63c-3.3,0-4.36-2.08-4.36-5.12s1.06-5.13,4.36-5.13c3.47,0,3.93,2.43,3.93,5.13V21.6Zm0-2.31h3c-.06-.87-.27-1.62-1.31-1.62S117.49,18.36,117.34,19.29Z" transform="translate(-1.16 -2.84)"/></svg>